<?xml version="1.0" encoding="utf-8"?>
<!-- Generator: Adobe Illustrator 18.1.1, SVG Export Plug-In . SVG Version: 6.00 Build 0)  -->
<svg version="1.1" xmlns="http://www.w3.org/2000/svg" xmlns:xlink="http://www.w3.org/1999/xlink" x="0px" y="0px"
	 viewBox="0 0 247.6 304.3" enable-background="new 0 0 247.6 304.3" xml:space="preserve">
<g id="_x31_">
	<g>
		<path fill="#E29244" d="M217.4,107.7c-2.4,0-4.7,0.3-6.9,0.7c-6.7-9.8-21.7-22.6-58.5-42.7c-22.9-12.5-35.6-19.3-44-23.8
			c-9.1-4.9-12.9-6.9-19-10.5c-1.1-0.7-2.3-1.2-3.5-1.7c-2.4-6.6-7.6-15.7-19-19.9c-2.4-0.9-5-1.4-7.5-1.4
			C43.5,8.5,33.3,25.1,20.4,46c-1.1,1.8-2.3,3.7-3.5,5.6c-9.6,15.5-11.6,31.6-5.3,43c3,5.4,10.7,14.5,28.2,14.5c1.9,0,4-0.1,6.1-0.3
			c8.9,12.4,27,27.2,40,28.2c-6.1,9.6-3,20.4-1,27.1c0.2,0.8,0.5,1.7,0.7,2.6c-1.8-0.2-4-0.5-6.2-0.5c-8.4,0-15.3,3.1-20.7,9.3
			c-12,13.7-2.1,25.2,1.6,29.5c0.4,0.5,0.9,1,1.3,1.5c-1.9,0.7-5.2,1.4-7.2,1.8c-7,1.4-16.5,3.2-20.6,12.1
			c-4.8,10.5,2.1,17,4.7,19.4c2.3,2.2,3.5,3.3,3.3,8.3c0,0.6-0.1,1-0.1,1.4c-0.2,0-0.4,0-0.6,0c-4.1,0.2-11.7,0.5-16.8,7.7
			C7.8,281,6.4,290,9.6,296.8c2,4.3,6,7,11,7.4c0.7,0.1,1.4,0.1,2.1,0.1c9.8,0,14.7-5.7,18.6-10.3c2-2.3,4-4.7,7.1-7
			c2.2-1.7,3.4-1.9,5.9-2.3c6.8-1.1,13.7-3,23-14.6c11.2-14,5.4-24.1,2.6-29c-0.3-0.5-0.6-1.1-0.9-1.6c0-0.1,0.1-0.1,0.2-0.2
			c0.9-1.3,1.3-1.5,3.4-1.5c1,0,2.2,0.1,3.5,0.2c1.5,0.1,3.3,0.2,5.2,0.2c7.5,0,13.6-2.3,18.8-7.1c4.7-4.4,5.7-9.1,5.7-12.3
			c0.1-7.5-4.9-13.2-9.9-18.2c2.9,0.4,5.9,0.8,9,0.8c6.6,0,11.9-1.6,16.1-4.8c4.7-3.6,7.3-7.7,7.8-12.4c0.6-5.6-1.9-10-4.9-13.8
			c10.2,4.9,21.2,9.2,30.1,10.3c5.2,21.8,19.3,24.3,25.7,24.3c0,0,0,0,0,0c17.3,0,33.6-16.4,39.8-23.4c7.5-8.5,30.3-34.4,10.2-62.2
			C234.1,111.7,226.5,107.7,217.4,107.7z"/>
	</g>
	<g>
		<path fill="#FFFFFF" d="M209.4,99.2c-2.4,0-4.7,0.3-6.9,0.7c-6.7-9.8-21.7-22.6-58.5-42.7c-22.9-12.5-35.6-19.3-44-23.8
			c-9.1-4.9-12.9-6.9-19-10.5c-1.1-0.7-2.3-1.2-3.5-1.7c-2.4-6.6-7.6-15.7-19-19.9c-2.4-0.9-5-1.4-7.5-1.4
			C35.5,0,25.3,16.6,12.4,37.5c-1.1,1.8-2.3,3.7-3.5,5.6c-9.6,15.5-11.6,31.6-5.3,43c3,5.4,10.7,14.5,28.2,14.5c1.9,0,4-0.1,6.1-0.3
			c8.9,12.4,27,27.2,40,28.2c-6.1,9.6-3,20.4-1,27.1c0.2,0.8,0.5,1.7,0.7,2.6c-1.8-0.2-4-0.5-6.2-0.5c-8.4,0-15.3,3.1-20.7,9.3
			c-12,13.7-2.1,25.2,1.6,29.5c0.4,0.5,0.9,1,1.3,1.5c-1.9,0.7-5.2,1.4-7.2,1.8c-7,1.4-16.5,3.2-20.6,12.1
			c-4.8,10.5,2.1,17,4.7,19.4c2.3,2.2,3.5,3.3,3.3,8.3c0,0.6-0.1,1-0.1,1.4c-0.2,0-0.4,0-0.6,0c-4.1,0.2-11.7,0.5-16.8,7.7
			c-16.7,23.8-18,32.8-14.8,39.6c2,4.3,6,7,11,7.4c0.7,0.1,1.4,0.1,2.1,0.1c9.8,0,14.7-5.7,18.6-10.3c2-2.3,4-4.7,7.1-7
			c2.2-1.7,3.4-1.9,5.9-2.3c6.8-1.1,13.7-3,23-14.6c11.2-14,5.4-24.1,2.6-29c-0.3-0.5-0.6-1.1-0.9-1.6c0-0.1,0.1-0.1,0.2-0.2
			c0.9-1.3,1.3-1.5,3.4-1.5c1,0,2.2,0.1,3.5,0.2c1.5,0.1,3.3,0.2,5.2,0.2c7.5,0,13.6-2.3,18.8-7.1c4.7-4.4,5.7-9.1,5.7-12.3
			c0.1-7.5-4.9-13.2-9.9-18.2c2.9,0.4,5.9,0.8,9,0.8c6.6,0,11.9-1.6,16.1-4.8c4.7-3.6,7.3-7.7,7.8-12.4c0.6-5.6-1.9-10-4.9-13.8
			c10.2,4.9,21.2,9.2,30.1,10.3c5.2,21.8,19.3,24.3,25.7,24.3c0,0,0,0,0,0c17.3,0,33.6-16.4,39.8-23.4c7.5-8.5,30.3-34.4,10.2-62.2
			C226.1,103.2,218.5,99.2,209.4,99.2z"/>
	</g>
	<g>
		<path fill="#3E1F00" d="M197.6,112.2c-3.2-9.7-15.1-22.5-58.3-46.1C91.7,40,88,38.8,75.9,31.6c-2.1-1.3-4.3-1.8-6.4-1.8
			c-0.2-1.7-2.4-14.6-14.4-19C42.3,5.9,31.8,25.2,17.4,48.4S8.6,96.5,43.1,89.3c4.8,11.2,28.9,32.1,38.5,28.9
			c8.1-2.7-20-17.6-28.1-28.9s3.2-20-4.8-24.1c-6.5-3.2-9.3,7.2-7.6,17.2c-4.3,1-11.8,1.4-19.7-4.4c-12-8.8,17.6-51.3,28.9-58.5
			c8.2-5.3,10.8,5.7,11.7,12c-7,3.4-12,10.6-10.1,13.6C55.1,50,68.7,34,78.3,40.4s92.2,49.7,104.2,62.5c12,12.8,2.4,23.3,7.2,27.3
			c4.4,3.7,8.8-1.4,8.9-10.2c5.2-1.4,13.1-3.2,16.8-2.7c5.6,0.8,10.4,8.8,2.4,22.4s-26.5,42.5-38.5,36.9c-8.1-3.8-7.8-11.5-6.8-16.2
			c7-2.7,8.7-8.1,6-11.9c-4-5.6-8.8,8-22.4,4c-12.5-3.7-34.6-14.2-39.9-16.4c1.7-1.9,3-4,3-6.8c0-10.4-25.1-16.4-21.6-10.4
			c8,13.6,9.6,13.6,3.2,22.4c-6.4,8.8,13.6,31.3,8.8,36.1c-4.8,4.8-32.1-3.2-36.9,4.8s17.6,23.3,12,29.7c-5.6,6.4-21.6,4-28.9,10.4
			c-7.2,6.4,5.6,23.3,0,29.7c-5.6,6.4-20,10.4-24.9,14.4c-4.8,4-16,12-7.2,0c8.8-12,12.8-8,21.6-13.6c8.8-5.6,7.2-11.2,4-20.8
			s-8.8-16.8,5.6-17.6c14.4-0.8,19.2-8,16-18.4c-3.2-10.4-8.8-18.4-0.8-20s17.6,5.6,24.9-7.2c7.2-12.8-5.6-21.6-2.4-28.9
			c3.2-7.2,4.8-18.4-4.8-8s3.2,24.9,0,33.7c-3.2,8.8-18.4-4.8-29.7,8c-11.2,12.8,10.4,17.6,5.6,28.1c-4.8,10.4-24.9,5.6-28.9,14.4
			c-4,8.8,9.6,6.4,8.8,24.1c-0.8,17.6-13.6,6.4-19.2,14.4c-5.6,8-20.8,30.5-11.2,31.3c9.6,0.8,10.4-7.2,20.8-15.2
			c10.4-8,14.4,0.8,27.3-15.2c12.8-16-7.2-18.4,1.6-30.5s20.8,0.8,32.1-9.6s-18.4-22.4-14.4-31.3c4-8.8,25.7,4,36.1-4
			c10.4-8-2.4-12.8-8.8-25.7c-2.9-5.7-0.9-9.2,2.1-12.2c9.5,5.5,35,19.6,49.2,20.3c1.8,0.1,3.5,0,5-0.1c4.1,38.7,32.2,23.7,49.5,4.1
			c17.6-20,20-35.3,9.6-49.7C215.3,105.2,202.6,109.7,197.6,112.2z"/>
	</g>
</g>
<g id="Designed_by_Vecteezy">
</g>
</svg>
