<?xml version="1.0" encoding="utf-8"?>
<!-- Generator: Adobe Illustrator 18.1.1, SVG Export Plug-In . SVG Version: 6.00 Build 0)  -->
<svg version="1.1" xmlns="http://www.w3.org/2000/svg" xmlns:xlink="http://www.w3.org/1999/xlink" x="0px" y="0px"
	 viewBox="0 0 128.2 374.7" enable-background="new 0 0 128.2 374.7" xml:space="preserve">
<g id="_x31_">
	<g>
		<path fill="#E29244" d="M61.2,374.7c12.5,0,25.8-0.9,36.5-2.5c18.1-2.7,23.5-6.4,26.1-11.2c1.7-3,4.4-8.1,4.4-91.9
			c0-33.1-0.6-82.5-1.7-89.3c-1.3-7.9-8.7-14.8-17.1-22.8c-3.9-3.6-10.2-9.7-11.6-12.4c-0.1-7.1-1.4-24.4-2.3-36.4
			c0.2-0.1,0.4-0.3,0.6-0.4c11-7.8,10.4-30.1,4.3-39.9c-0.9-1.5-2.1-2.6-3.3-3.6c9.8-37.4,6.1-42.6,3.8-45.9
			c-3-4.2-8.4-6.6-18.8-8.3C75.3,9.1,67.3,8.5,60,8.5c-15.7,0-20.5,2.6-23.4,5.5c-10.8,10.8,2,42.7,2.1,43c0.5,1.3,1.4,3.3,2.6,5.4
			c-5.6,1.9-7,4.3-7.9,5.6c-3.9,6.5-3.8,23,0.1,30c2.3,4,6.2,6.4,10.5,6.4c0.2,0,0.4,0,0.7,0c-0.8,2.2-1.2,4.5-1.5,6
			c-0.6,3.3-1.1,7.5-1.6,12c-0.5,4.5-1.3,11-1.9,13.7c-5.9,7.3-22.4,30.2-26.1,35.7c-1.7,2.5-3.3,4.9-4.5,34.2
			c-0.7,15.7-1.1,36.4-1.2,58.3c-0.1,25.1,0,84.5,3.8,95.2C14.3,366.6,22.2,374.7,61.2,374.7C61.2,374.7,61.2,374.7,61.2,374.7z"/>
	</g>
	<g>
		<path fill="#FFFFFF" d="M53.2,366.2c12.5,0,25.8-0.9,36.5-2.5c18.1-2.7,23.5-6.4,26.1-11.2c1.7-3,4.4-8.1,4.4-91.9
			c0-33.1-0.6-82.5-1.7-89.3c-1.3-7.9-8.7-14.8-17.1-22.8c-3.9-3.6-10.2-9.7-11.6-12.4c-0.1-7.1-1.4-24.4-2.3-36.4
			c0.2-0.1,0.4-0.3,0.6-0.4c11-7.8,10.4-30.1,4.3-39.9c-0.9-1.5-2.1-2.6-3.3-3.6C98.7,18.4,95,13.2,92.7,10c-3-4.2-8.4-6.6-18.8-8.3
			C67.3,0.6,59.3,0,52,0C36.3,0,31.5,2.6,28.6,5.5c-10.8,10.8,2,42.7,2.1,43c0.5,1.3,1.4,3.3,2.6,5.4c-5.6,1.9-7,4.3-7.9,5.6
			c-3.9,6.5-3.8,23,0.1,30c2.3,4,6.2,6.4,10.5,6.4c0.2,0,0.4,0,0.7,0c-0.8,2.2-1.2,4.5-1.5,6c-0.6,3.3-1.1,7.5-1.6,12
			c-0.5,4.5-1.3,11-1.9,13.7c-5.9,7.3-22.4,30.2-26.1,35.7c-1.7,2.5-3.3,4.9-4.5,34.2c-0.7,15.7-1.1,36.4-1.2,58.3
			c-0.1,25.1,0,84.5,3.8,95.2C6.3,358.1,14.2,366.2,53.2,366.2C53.2,366.2,53.2,366.2,53.2,366.2z"/>
	</g>
	<g>
		<path fill="#3E1F00" d="M107,347.7c4.8-8.8,3.2-165.2,1.6-174.8c-1.6-9.6-28.9-26.5-28.9-36.1c0-7.9-2.2-34.8-2.9-44.1
			c2.4-0.3,4.3-0.9,5.3-1.6c5.6-4,5.6-20,1.6-26.5c-0.8-1.3-3.4-2.3-6.8-2.9c2-7.1,11.2-41,7.6-46c-4-5.6-44.1-8-48.9-3.2
			s4,39.3,9.6,39.3c7.2,0-4-29.7,0-32.1c4-2.4,19.2-0.8,28.1,6.4c7.4,6-2,27.7-5.3,34.7c-14-0.7-32.4,1.3-34,3.8
			c-2.4,4-2.1,24.4,3.2,20.8c2.4-1.6,2.4-13.6,4.8-16c2.4-2.4,30.5-2.4,33.7,0.8c3.2,3.2,2.4,15.2-3.2,16.8
			c-5.6,1.6-29.7-0.8-27.3,2.4c1.5,2.1,13.9,3.8,24.1,3.7c0.2,9.2,0.9,45.9,1.6,50.8c0.8,5.6,23.3,24.9,26.5,32.1
			c3.2,7.2,4.8,159.5,1.6,164.4c-3.2,4.8-66.5,7.2-73,4.8c-5.2-1.9-12-103.9-9.7-150.2c12-0.8,47.6-2.5,49,3.5
			c1.6,7.2,2.4,100.2-0.8,107.4c-3.2,7.2-41.7,0.8-40.1,5.6c1.6,4.8,43.3,2.4,48.9-3.2C79,302.8,79.8,193,71.8,189
			c-7.2-3.6-47.2-2-54.8-1.7c0.6-6.7,1.5-11.5,2.7-13.6c8.8-14.4,28.9-31.3,30.5-38.5c1.6-7.2,0-35.3-3.2-36.9
			c-2.3-1.1-4,32.1-6.4,34.5c-2.4,2.4-21.6,28.9-26.5,36.1c-4.8,7.2-5.6,165.2-0.8,178.8S102.2,356.5,107,347.7z"/>
	</g>
</g>
<g id="Designed_by_Vecteezy">
</g>
</svg>
