<?xml version="1.0" encoding="utf-8"?>
<!-- Generator: Adobe Illustrator 18.1.1, SVG Export Plug-In . SVG Version: 6.00 Build 0)  -->
<svg version="1.1" id="Слой_1" xmlns="http://www.w3.org/2000/svg" xmlns:xlink="http://www.w3.org/1999/xlink" x="0px" y="0px"
	 viewBox="0 0 319.6 319.6" enable-background="new 0 0 319.6 319.6" xml:space="preserve">
<circle fill="#EEECC6" cx="159.8" cy="159.8" r="159.8"/>
<g>
	<g>
		<polygon fill="#1D2020" points="120.7,99.1 195,99.7 177,265.5 137,265.5 		"/>
	</g>
</g>
<g>
	<g>
		<path fill="#1D2020" d="M181.6,275.5c0,3.2-2.6,5.8-5.8,5.8h-36.7c-3.2,0-5.8-2.6-5.8-5.8l0,0c0-3.2,2.6-5.8,5.8-5.8h36.7
			C179,269.7,181.6,272.3,181.6,275.5L181.6,275.5z"/>
	</g>
</g>
<g>
	<g>
		<path fill="#D2A04C" d="M194,64.1c-1.3,0-2.5,0.2-3.7,0.5c-1.4-9.1-9.2-16-18.7-16c-2.8,0-5.4,0.6-7.8,1.7
			c-3.9-8.1-12.1-13.7-21.6-13.7c-13.2,0-24,10.7-24,24c0,1.9,0.2,3.7,0.6,5.4c-0.1,0-0.2,0-0.3,0c-7,0-12.8,5.7-12.8,12.8
			c0,7,5.7,12.8,12.8,12.8h72.2c1,0.2,2.1,0.4,3.2,0.4c7.7,0,13.9-6.2,13.9-13.9C207.9,70.3,201.7,64.1,194,64.1z"/>
	</g>
</g>
<g>
	<path fill="#86B593" d="M251.5,200.2c-60.1,20.6-125.4,20.6-185.5,0c5.4-15.8,10.8-31.6,16.3-47.5c49.6,17,103.4,17,153,0
		C240.6,168.6,246,184.4,251.5,200.2z"/>
</g>
<g>
	<path fill="#D2A04C" d="M76.1,161.7l-27.9-9.1l2.6,25.3l-20.2,17.4l59.3,21.6l2.3-4.5c0,0-3.6-0.9-14.3-4.4
		c-5.6-1.8-15.9-5.5-15.9-5.5L76.1,161.7z"/>
</g>
<g>
	<path fill="#D2A04C" d="M241.6,162.1l27.9-9.1l-2.6,25.3l20.2,17.4l-59.3,21.6l-2.3-4.5c0,0,3.6-0.9,14.3-4.4
		c5.6-1.8,15.9-5.5,15.9-5.5L241.6,162.1z"/>
</g>
<g>
	<g>
		<path fill="#FFFFFF" d="M122.7,185.3c0,0.8-0.1,1.6-0.3,2.5s-0.6,1.9-1,2.8s-1,1.9-1.6,2.9s-1.3,1.9-2.1,2.7
			c-1.3,1.3-2.5,2.4-3.5,3.3s-2.1,1.5-3.2,2s-2.1,0.8-3.2,1s-2.3,0.3-3.6,0.3c-0.7,0-1.3-0.1-1.9-0.4s-1.2-0.6-1.7-1s-1-0.9-1.5-1.5
			s-0.8-1.2-1.1-1.8s-0.6-1.3-0.7-2s-0.3-1.3-0.3-1.9c0-1.1,0.2-2.4,0.5-3.7s0.8-2.7,1.4-4s1.4-2.7,2.2-3.9s1.9-2.4,3-3.3
			s2.3-1.7,3.6-2.3s2.6-0.9,4.1-0.9c0.3,0,0.6,0,0.9,0s0.8,0,1.2,0.1s0.9,0.1,1.4,0.1s1,0.2,1.5,0.3s0.9,0.3,1.4,0.5
			s0.8,0.4,1.2,0.7c0.8,0.6,1.5,1.2,1.9,1.8s0.8,1.2,1.1,1.7s0.4,1.2,0.4,1.9S122.7,184.5,122.7,185.3z M111.9,178.4
			c-0.9,0-1.7,0.2-2.4,0.5s-1.5,0.8-2.1,1.3s-1.3,1.1-1.9,1.8s-1.2,1.4-1.7,2.1c-0.5,0.6-0.9,1.3-1.4,2.1s-0.8,1.6-1.2,2.5
			s-0.6,1.8-0.8,2.7s-0.3,1.8-0.3,2.8c0,0.9,0.1,1.7,0.4,2.4s0.7,1.3,1.2,1.8s1,0.9,1.6,1.2s1.3,0.4,1.9,0.4c1,0,1.9-0.1,2.8-0.4
			s1.8-0.6,2.6-1.1s1.6-1,2.4-1.6s1.4-1.3,2.1-2s1.2-1.5,1.7-2.2s0.9-1.5,1.3-2.3c0.2-0.4,0.3-0.8,0.4-1.3s0.2-1,0.3-1.5
			s0.2-1.1,0.2-1.6s0.1-1,0.1-1.5s0-0.9,0-1.3s-0.1-0.7-0.1-0.9c-0.1-0.4-0.4-0.8-0.7-1.2s-0.8-0.8-1.4-1.2s-1.3-0.7-2.1-0.9
			S113,178.4,111.9,178.4z"/>
		<path fill="#FFFFFF" d="M143.6,187.4c0,0.1,0,0.2,0,0.3s0,0.3-0.1,0.4s-0.1,0.3-0.2,0.4s-0.1,0.2-0.3,0.2c-0.1,0-0.2,0-0.4,0
			s-0.3,0-0.5,0s-0.4,0-0.5,0s-0.3,0-0.4,0c-2.2,0.1-4.1,1-5.6,2.5c-1.5,1.5-2.7,3.4-3.8,5.9c-0.2,0.5-0.4,1-0.6,1.6
			s-0.4,1.1-0.6,1.7c-0.1,0.3-0.2,0.6-0.2,0.9s-0.1,0.5-0.2,0.8c0,0.1-0.1,0.2-0.3,0.3s-0.4,0.2-0.6,0.2s-0.4,0.1-0.6,0.2
			s-0.3,0.1-0.4,0.1c-0.8,0-1.3-0.8-1.4-2.5c0-0.5,0-0.9,0-1.3s0-0.8,0-1.1s0.1-0.7,0.1-1.1s0.1-0.8,0.1-1.3
			c0.1-0.6,0.1-1.3,0.2-2.1s0.2-1.6,0.3-2.4s0.2-1.6,0.3-2.3s0.2-1.3,0.4-1.8c0.1-0.5,0.3-1,0.5-1.2s0.6-0.4,1-0.4
			c0.1,0,0.2,0,0.4,0.1s0.3,0.1,0.4,0.3s0.2,0.2,0.3,0.3s0.1,0.2,0.1,0.3c0,0.3,0,0.6,0,1s-0.1,0.7-0.1,1.1s-0.1,0.7-0.2,1.1
			s-0.2,0.7-0.2,1.1c-0.2,0.7-0.3,1.2-0.4,1.7s-0.2,0.9-0.2,1.4s-0.1,0.9-0.2,1.4s-0.1,1.1-0.2,1.9c0.2-0.4,0.4-0.8,0.5-1.1
			s0.3-0.6,0.4-0.8s0.2-0.5,0.3-0.6s0.2-0.4,0.3-0.6s0.2-0.4,0.4-0.7s0.3-0.5,0.5-0.9c0.8-1.4,1.7-2.5,2.6-3.3s1.8-1.5,2.7-1.9
			c1-0.5,1.8-0.7,2.4-0.8c0.3,0,0.7,0,1.1,0.1s0.8,0.1,1.2,0.3s0.7,0.3,1,0.5S143.6,187.1,143.6,187.4z"/>
		<path fill="#FFFFFF" d="M164.3,190.2c0,0.2-0.1,0.6-0.3,1s-0.5,0.9-0.9,1.4s-0.8,1.1-1.4,1.7s-1.1,1.2-1.6,1.8
			c-0.7,0.7-1.4,1.4-2.1,2s-1.5,1.3-2.3,1.9c-1.6,1.2-3.1,1.8-4.4,1.8c-1.4,0-2.5-0.5-3.3-1.4c-0.8-1-1.3-2.1-1.6-3.5
			c-0.3-1.3-0.4-2.7-0.4-4.2c0-0.6,0.1-1.5,0.2-2.8c0.1-0.6,0.1-1.2,0.2-1.6s0.1-0.8,0.2-1.1c0.2-0.6,0.5-1,1-1.4
			c0.5-0.4,1.1-0.7,1.7-0.7c0.3,0,0.5,0.3,0.5,0.9c0,0.4,0,0.8-0.1,1.4s-0.2,1-0.2,1.5c-0.2,0.9-0.3,1.8-0.3,2.5s-0.1,1.4-0.1,1.9
			c0,1.2,0.2,2.4,0.5,3.6c0.3,1.2,0.9,1.8,1.8,1.8c0.9,0,1.9-0.3,3-0.9c0.6-0.3,1.1-0.7,1.7-1.1s1.1-0.8,1.7-1.3
			c0.6-0.5,1.1-1,1.7-1.5s1.1-1,1.6-1.5s1-1,1.4-1.5s0.8-0.9,1.1-1.3c0,0,0-0.1,0.1-0.1s0.1-0.1,0.1-0.2s0.1-0.1,0.1-0.1
			s0.1,0,0.1,0c0.2,0,0.3,0.1,0.4,0.4C164.2,189.8,164.3,190,164.3,190.2z M152.8,175.9c0,0.8-0.2,1.4-0.6,2c-0.4,0.5-1,0.8-1.7,0.8
			c-0.5,0-1-0.1-1.6-0.2c-0.6-0.1-0.8-0.4-0.8-0.7c0-0.6,0.2-1.1,0.5-1.6s0.8-0.9,1.3-1.3c0.4-0.2,0.7-0.4,0.8-0.4
			c0.7,0,1.2,0.1,1.5,0.3S152.8,175.3,152.8,175.9z"/>
		<path fill="#FFFFFF" d="M174.9,188.1c-0.1,0.8-0.2,1.7-0.2,2.7s-0.1,2.1-0.2,3.3c0,0.4-0.1,0.9-0.1,1.5s-0.1,1.1-0.2,1.7
			s-0.1,1.2-0.2,1.8s-0.1,1.1-0.2,1.6c-0.1,0.7-0.2,1.4-0.4,2.1s-0.4,1.5-0.6,2.2s-0.5,1.4-0.9,2s-0.8,1.2-1.3,1.7s-1.1,0.9-1.7,1.2
			s-1.4,0.4-2.2,0.4c-0.5,0-1.1-0.1-1.6-0.2s-1.1-0.3-1.6-0.5s-1-0.5-1.5-0.8s-0.9-0.6-1.3-1c-0.5-0.4-0.9-0.8-1.2-1.2
			s-0.6-0.8-0.9-1.2c-0.2-0.4-0.4-0.8-0.4-1.2c0-0.4,0.1-0.5,0.4-0.5c0.1,0,0.2,0,0.3,0.1c0,0,0.1,0.1,0.2,0.2s0.1,0.1,0.2,0.2
			s0.1,0.1,0.2,0.2s0.1,0.1,0.1,0.1c2.3,2.1,4.7,3.1,7.2,3.1c0.9,0,1.6-0.2,2.1-0.6s1-0.9,1.3-1.5s0.6-1.3,0.7-2.1s0.3-1.5,0.4-2.3
			c0.1-0.5,0.1-0.9,0.2-1.4s0.1-1,0.1-1.5s0.1-1,0.1-1.6s0.1-1.2,0.2-1.8c-0.5,0.5-1.1,1.1-1.8,1.6s-1.5,1.1-2.4,1.6
			s-1.7,0.9-2.5,1.2s-1.6,0.5-2.3,0.5c-0.3,0-0.6-0.1-0.8-0.2s-0.5-0.3-0.7-0.6s-0.3-0.6-0.4-1s-0.2-0.8-0.2-1.3
			c0-0.7,0.1-1.4,0.4-2.2s0.5-1.5,0.9-2.3s0.8-1.5,1.2-2.2s0.9-1.4,1.3-1.9c0.4-0.6,0.9-1.2,1.5-1.8s1.2-1.2,1.9-1.7
			s1.4-0.9,2.1-1.3s1.5-0.5,2.2-0.5c0.6,0,1.2,0.1,1.7,0.4s1,0.7,1.2,1.2c0.1,0.1,0.1,0.3,0.1,0.6s0,0.5,0,0.9s-0.1,0.7-0.1,1
			S174.9,187.8,174.9,188.1z M172,191.3c0-0.4,0.1-0.8,0.1-1.3s0.1-1.1,0.2-1.9c0-0.4,0.1-0.8,0.1-1.2s0-0.7,0-0.9
			c-0.1-0.3-0.3-0.6-0.5-0.7s-0.7-0.1-1.3-0.1c-0.6,0.4-1.1,0.8-1.7,1.3s-1.1,1.1-1.6,1.7s-1,1.2-1.4,1.9s-0.8,1.3-1.1,1.9
			c-0.4,0.7-0.7,1.3-0.9,2s-0.3,1.2-0.3,1.7c0,0.2,0,0.4,0.1,0.5s0.2,0.2,0.3,0.3s0.3,0.1,0.4,0.2s0.3,0,0.5,0
			c0.4,0,0.9-0.1,1.3-0.3s0.9-0.4,1.4-0.7s0.9-0.5,1.3-0.8s0.8-0.5,1.1-0.8c0.1-0.1,0.3-0.2,0.5-0.4s0.4-0.4,0.6-0.7
			s0.4-0.5,0.6-0.8S172,191.6,172,191.3z"/>
		<path fill="#FFFFFF" d="M198.6,190.2c0,0.2-0.1,0.6-0.3,1s-0.5,0.9-0.9,1.4s-0.8,1.1-1.4,1.7s-1.1,1.2-1.6,1.8
			c-0.7,0.7-1.4,1.4-2.1,2s-1.5,1.3-2.3,1.9c-1.6,1.2-3.1,1.8-4.4,1.8c-1.4,0-2.5-0.5-3.3-1.4c-0.8-1-1.3-2.1-1.6-3.5
			c-0.3-1.3-0.4-2.7-0.4-4.2c0-0.6,0.1-1.5,0.2-2.8c0.1-0.6,0.1-1.2,0.2-1.6s0.1-0.8,0.2-1.1c0.2-0.6,0.5-1,1-1.4
			c0.5-0.4,1.1-0.7,1.7-0.7c0.3,0,0.5,0.3,0.5,0.9c0,0.4,0,0.8-0.1,1.4s-0.2,1-0.2,1.5c-0.2,0.9-0.3,1.8-0.3,2.5s-0.1,1.4-0.1,1.9
			c0,1.2,0.2,2.4,0.5,3.6c0.3,1.2,0.9,1.8,1.8,1.8c0.9,0,1.9-0.3,3-0.9c0.6-0.3,1.1-0.7,1.7-1.1s1.1-0.8,1.7-1.3
			c0.6-0.5,1.1-1,1.7-1.5s1.1-1,1.6-1.5s1-1,1.4-1.5s0.8-0.9,1.1-1.3c0,0,0-0.1,0.1-0.1s0.1-0.1,0.1-0.2s0.1-0.1,0.1-0.1
			s0.1,0,0.1,0c0.2,0,0.3,0.1,0.4,0.4C198.6,189.8,198.6,190,198.6,190.2z M187.1,175.9c0,0.8-0.2,1.4-0.6,2c-0.4,0.5-1,0.8-1.7,0.8
			c-0.5,0-1-0.1-1.6-0.2c-0.6-0.1-0.8-0.4-0.8-0.7c0-0.6,0.2-1.1,0.5-1.6s0.8-0.9,1.3-1.3c0.4-0.2,0.7-0.4,0.8-0.4
			c0.7,0,1.2,0.1,1.5,0.3S187.1,175.3,187.1,175.9z"/>
		<path fill="#FFFFFF" d="M226.5,189c0,0.2,0,0.4-0.1,0.7s-0.2,0.5-0.3,0.7s-0.2,0.5-0.4,0.7s-0.3,0.4-0.4,0.6
			c-0.3,0.5-0.7,1.1-1.2,1.6s-0.9,1.1-1.5,1.6s-1.1,1-1.6,1.5s-1.1,0.9-1.6,1.2c-0.4,0.3-0.8,0.5-1.2,0.8s-0.8,0.5-1.2,0.6
			s-0.8,0.3-1.2,0.4s-0.9,0.2-1.4,0.2c-1,0-1.8-0.2-2.4-0.7c-0.3-0.2-0.6-0.6-0.8-1s-0.4-0.8-0.6-1.3s-0.3-1-0.4-1.5
			s-0.2-1.1-0.3-1.6c-0.1-0.7-0.2-1.2-0.3-1.8s-0.2-1-0.3-1.3s-0.3-0.6-0.4-0.8s-0.4-0.3-0.7-0.3c-0.2,0-0.4,0-0.6,0.1
			s-0.4,0.1-0.6,0.3s-0.5,0.3-0.7,0.6s-0.6,0.6-0.9,1s-0.7,0.9-1.2,1.5s-1,1.3-1.6,2.2c-0.3,0.4-0.6,0.9-1,1.4s-0.8,1-1.2,1.4
			s-0.8,0.8-1.2,1.2s-0.8,0.6-1.1,0.7c-1-0.2-1.5-1.5-1.5-3.8c0-0.6,0.1-1.6,0.2-2.8c0.1-0.6,0.2-1.2,0.2-1.8s0.2-1.3,0.4-1.9
			s0.3-1.2,0.5-1.8s0.4-1.1,0.6-1.6c0.1-0.2,0.2-0.4,0.4-0.6s0.3-0.2,0.4-0.3s0.3-0.1,0.4-0.1s0.3,0,0.4,0c0.2,0,0.4,0.1,0.5,0.4
			s0.2,0.6,0.2,1.1c0,0.3,0,0.5-0.1,0.8s-0.1,0.5-0.2,0.8s-0.2,0.5-0.3,0.8s-0.2,0.6-0.3,1c-0.1,0.3-0.1,0.7-0.2,1.1
			s-0.2,0.8-0.2,1.2s-0.1,0.8-0.2,1.2s-0.1,0.7-0.1,1c0,0.2,0,0.4,0.1,0.7c0.3,0,0.9-0.5,1.6-1.5c0.4-0.5,0.8-1,1.3-1.6
			s1-1.2,1.5-1.9c0.4-0.5,0.8-1,1.2-1.4s0.8-0.8,1.2-1.2s0.9-0.6,1.3-0.8s1-0.3,1.6-0.3c0.6,0,1.1,0.1,1.5,0.4s0.7,0.6,1,1.1
			s0.4,1,0.6,1.7s0.2,1.4,0.3,2.1c0.1,0.7,0.1,1.3,0.2,2s0.2,1.2,0.4,1.7s0.5,0.9,0.8,1.2s0.9,0.5,1.5,0.5c0.5,0,1-0.1,1.6-0.4
			s1.1-0.6,1.7-1s1.2-0.9,1.9-1.5s1.3-1.2,2-1.8c0.3-0.3,0.6-0.6,0.9-1s0.6-0.8,0.9-1.1s0.6-0.7,0.9-0.9s0.5-0.4,0.7-0.4
			c0.1,0,0.2,0,0.3,0.1S226.5,188.9,226.5,189z"/>
	</g>
</g>
</svg>
