<?xml version="1.0" encoding="utf-8"?>
<!-- Generator: Adobe Illustrator 18.1.1, SVG Export Plug-In . SVG Version: 6.00 Build 0)  -->
<svg version="1.1" xmlns="http://www.w3.org/2000/svg" xmlns:xlink="http://www.w3.org/1999/xlink" x="0px" y="0px"
	 viewBox="0 0 303.4 224.9" enable-background="new 0 0 303.4 224.9" xml:space="preserve">
<g id="_x31_">
	<g>
		<path fill="#E29244" d="M301.7,62c-1.5-18.2-3.4-23.9-9.2-26.8c-0.4-0.2-1.6-1-2.6-1.6c-11-6.9-40.3-25.2-96.5-25.2
			c-1.1,0-2.2,0-3.3,0C124.1,9.4,82.8,29.8,71.2,43.3c-2.7,3.1-5.4,8.6-6.2,25.5c-3.5-1-8.7-1.7-16.9-1.7c-6.2,0-12.6,0.4-17.6,1.2
			c-4.4,0.7-15.9,2.4-16.3,12.2c-4,2.4-6.3,6.7-6.3,11.6c0,7.7,5.8,15.9,11.2,19.2c0.3,0.2,0.7,0.4,1,0.6
			c-7.6,5.5-11.3,17.9-11,37.2c0.1,4.8,0.4,9.4,1,13.1c0.8,5.2,2.3,10.4,7.2,12.9c4.6,2.3,13,2.9,17.2,2.9c6.7,0,11.7-1.2,15.2-3.5
			c7.3-4.9,6-13.4,5.3-18.4c-0.1-0.4-0.2-1-0.2-1.6c1.9-0.2,4.1-0.2,6.1-0.3c3.5-0.1,6.8-0.2,9.9-0.9c0.5-0.1,1-0.3,1.5-0.4
			c1.5,5.7,4.1,13.3,10.7,15.1c-0.1,0.4-0.2,0.9-0.2,1.3c-0.4,3.1,0.2,10.8,12.8,13.8c1.5,0.4,3.1,0.7,4.7,1.1
			c-2.5,24.5-1.3,27.5-0.4,29.8c3.3,8.3,13.4,9,23.5,9c3.3,0,6.6-0.1,9.3-0.2c1.9-0.1,3.4-0.1,4.5-0.1c12.7,0,22.4-19.1,23.8-27.3
			c0.1-0.3,0.1-0.7,0.1-1c13.7,1.4,26.9,2.1,39.5,2.1c10.3,0,19.5-0.5,27.8-1.3c-0.1,8.8,4.4,22.1,13.1,25.8
			c5.2,2.2,15.6,3.9,24.2,3.9c0,0,0,0,0,0c9.2,0,15.7-1.8,20-5.6c4.8-4.2,8.3-12.1,3.3-40.4c9.5-5.6,11-10.3,11.6-12.1
			c3.3-9.8,2.5-63.2,2.5-65.4C303.2,90.5,302.8,74.9,301.7,62z"/>
	</g>
	<g>
		<path fill="#FFFFFF" d="M293.7,53.5c-1.5-18.2-3.4-23.9-9.2-26.8c-0.4-0.2-1.6-1-2.6-1.6C271,18.3,241.7,0,185.5,0
			c-1.1,0-2.2,0-3.3,0C116.1,0.9,74.8,21.3,63.2,34.8c-2.7,3.1-5.4,8.6-6.2,25.5c-3.5-1-8.7-1.7-16.9-1.7c-6.2,0-12.6,0.4-17.6,1.2
			C18.2,60.4,6.7,62.2,6.3,72C2.3,74.4,0,78.7,0,83.6c0,7.7,5.8,15.9,11.2,19.2c0.3,0.2,0.7,0.4,1,0.6c-7.6,5.5-11.3,17.9-11,37.2
			c0.1,4.8,0.4,9.4,1,13.1c0.8,5.2,2.3,10.4,7.2,12.9c4.6,2.3,13,2.9,17.2,2.9c6.7,0,11.7-1.2,15.2-3.5c7.3-4.9,6-13.4,5.3-18.4
			c-0.1-0.4-0.2-1-0.2-1.6c1.9-0.2,4.1-0.2,6.1-0.3c3.5-0.1,6.8-0.2,9.9-0.9c0.5-0.1,1-0.3,1.5-0.4c1.5,5.7,4.1,13.3,10.7,15.1
			c-0.1,0.4-0.2,0.9-0.2,1.3c-0.4,3.1,0.2,10.8,12.8,13.8c1.5,0.4,3.1,0.7,4.7,1.1c-2.5,24.5-1.3,27.5-0.4,29.8
			c3.3,8.3,13.4,9,23.5,9c3.3,0,6.6-0.1,9.3-0.2c1.9-0.1,3.4-0.1,4.5-0.1c12.7,0,22.4-19.1,23.8-27.3c0.1-0.3,0.1-0.7,0.1-1
			c13.7,1.4,26.9,2.1,39.5,2.1c10.3,0,19.5-0.5,27.8-1.3c-0.1,8.8,4.4,22.1,13.1,25.8c5.2,2.2,15.6,3.9,24.2,3.9c0,0,0,0,0,0
			c9.2,0,15.7-1.8,20-5.6c4.8-4.2,8.3-12.1,3.3-40.4c9.5-5.6,11-10.3,11.6-12.1c3.3-9.8,2.5-63.2,2.5-65.4
			C295.2,82,294.8,66.4,293.7,53.5z"/>
	</g>
	<g>
		<path fill="#3E1F00" d="M182.3,10c-63.3,0.8-101.8,20-111.4,31.3c-5,5.8-4.7,36.2-2.3,63.4c-3.2,0.1-11.4,0.4-20.4,1.1
			c-0.4-4.5-1.3-8.6-2.5-11.8c5.3-0.7,10.1-1.7,13.1-3c9.6-4,1.6-16-2.4-20c-4-4-40.1-2.5-40.1,1.6c0,5.6,26.5,4.8,32.1,4.8
			c5.6,0,5.6,6.4,2.4,8.8c-1.2,0.9-4.5,1.6-8.6,2.2c-1.4-1.1-2.8-1.2-4.2,0.2c0,0-0.1,0.1-0.1,0.2c-6.2,0.4-13,0.3-16.7-1
			c-7.2-2.4-5.6-9.6-9.6-7.2c-4,2.4,0.8,11.2,4.8,13.6c2.1,1.2,10.7,1.4,19.9,0.7c0,3.8,1,8.4,1.9,11.8c-8.1,1-15.6,2.3-19.3,4.3
			c-10.4,5.6-8,44.9-4.8,46.5s17.6,3.2,22.4,0c4.8-3.2-4.8-18.4,4.8-20.8c9.6-2.4,22.4,0.8,23.3-4.8c0.8-5.6-7.2-4-13.6-4
			s-17.6-0.8-17.6,4c0,4.8,1.6,16-3.2,17.6s-8,0.8-10.4-0.8s-1.6-26.5,4.8-28.9c5.3-2,34.7-5,45.2-6c2.4,21.2,6.1,38.2,9.4,35.7
			c6.4-4.8,0-95.4,3.2-100.2c1.6-2.3,10-9.2,25.5-15.7c-0.1,4.5-0.2,11.7-0.4,20.5c-11.2,2.8-18.3,5.9-18.7,8c-0.3,1.4,7.3,1,18.6,0
			c-0.2,11.3-0.3,24.3-0.3,36.9c-11.3,0.9-18.3,2.2-18.3,4c0,1.3,7.1,2.4,18.3,3.3c0,10,0.2,19.6,0.5,27.5
			c-11.1-1.3-17.9-2.1-16.4-1.1c4.6,3.2,10.3,5.7,16.7,7.8c0.5,9.2,1.3,15,2.5,14.7c1.1-0.3,1.9-5.3,2.6-13.2
			c4.9,1.3,10.2,2.3,15.8,3.1c0.5,9.4,1.3,15.2,2.5,14.8c1.1-0.3,1.9-5.7,2.6-14.2c29.8,3.5,65.7,1.1,92.7-2.5
			c0.5,10.5,1.3,17.1,2.6,16.7c1.2-0.4,2.1-7.1,2.8-17.4c6-0.9,11.5-1.8,16.3-2.7c0.5,9.6,1.3,15.7,2.6,15.3
			c1.2-0.4,2.1-6.7,2.8-16.4c8.4-1.8,13.4-3.5,13.2-4.4c-0.3-1.6-5.1-1.8-12.8-1.2c0.4-7.8,0.8-17,1-26.7c5.9-0.7,9.3-1.5,9.4-2.5
			c0.1-1-3.3-1.9-9.3-2.8c0.3-11.8,0.4-24.1,0.5-35.2c7.1,0.4,11.5-0.1,11.3-2.1c-0.3-2.4-4.3-4.4-11.2-6.1c0-10.1,0-18.7,0-24.4
			c10.7,5.1,15.7,10.5,16,13.7c0.8,7.2,0.8,105.8,0.8,105.8c-65.7,24.9-137.1,14.4-158.7,8.8c-21.6-5.6-36.9,0-23.3,3.2
			c4.5,1.1,8.9,2,13.3,3c-0.9,8.2-3.4,30.7-2.1,33.9c1.6,4,21.6,2.4,28.1,2.4s17.6-20.8,12.8-22.4s-7.2,12-13.6,15.2s-20-1.6-20-1.6
			l3.6-25.7c72.5,14.1,120.9,8.1,147.3-0.5c1.9,5.8,5.9,19.8,1.5,25.4c-5.6,7.2-14.4,4.8-18.4,4.8c-4,0-2.4-18.4-8.8-17.6
			c-6.4,0.8-1.6,19.2,4,21.6c5.6,2.4,27.3,5.6,33.7,0c5-4.3,0.8-27.9-1.3-38.3c8.2-3.7,12.6-7.4,13.4-9.8
			c3.2-9.6,3.2-116.3-3.2-119.5C273.7,32.5,245.6,9.2,182.3,10z M226.4,24.3c-0.1,2.3-0.3,13.5-0.5,28.6
			c-11.7-1.4-25.3-2.8-40.4-4.3c-17-1.8-34.4-1.2-49.7,0.6c0-10.8,0-19.4,0-24.1c12.9-2.7,28-4.6,45.7-4.6
			C199.4,20.4,214.2,21.9,226.4,24.3z M135.4,97.7c0.2-13,0.4-26.4,0.4-38.3c16.2-1.5,33.4-2.7,45.7-2.1c12.7,0.6,29.2,3,44.2,5.1
			c-0.1,11.3-0.2,24-0.3,36.3C198.9,97.4,163.5,97,135.4,97.7z M115,30.8c4.1-1.4,8.6-2.8,13.5-4.1c-0.1,4.2-0.3,12.6-0.4,23.3
			c-4.7,0.7-9.1,1.4-13.1,2.3C115,43,115,35.4,115,30.8z M114.9,61.4c4.1-0.4,8.5-0.8,13-1.3c-0.2,11.6-0.3,24.8-0.3,37.7
			c-4.7,0.2-9.1,0.4-13.2,0.6C114.7,85.9,114.9,72.9,114.9,61.4z M113.2,134.5c0.5-7.9,0.8-17.5,1.1-27.7c4.1,0.2,8.6,0.5,13.4,0.7
			c0,10.4,0.2,20.4,0.4,28.7C122.8,135.6,117.8,135,113.2,134.5z M185.5,139.1c-15.9,0.6-34.7-0.7-51.4-2.3c0.4-8.4,0.8-18.4,1-29.1
			c28.2,1,63.7,1.1,90.3,0.3c0,10.1,0.2,19.7,0.4,27.8C213.6,137.2,199.5,138.5,185.5,139.1z M247.6,133.6c-4.6,0.4-9.8,1-15.6,1.6
			c0.4-8,0.7-17.5,0.9-27.4c5.3-0.2,10-0.5,14.2-0.8C247.2,116.7,247.3,125.9,247.6,133.6z M247.1,100.2c-4.1-0.4-8.8-0.7-14-1
			c0.2-12,0.3-24.4,0.4-35.7c4.9,0.7,9.6,1.3,13.8,1.7C247.2,76.2,247.1,88.4,247.1,100.2z M247.5,56c-4.1-0.7-8.7-1.4-13.9-2.1
			c0-12.3,0-22.5,0-28c5.4,1.3,10.2,2.8,14.4,4.3C247.9,33.9,247.7,43.5,247.5,56z"/>
	</g>
</g>
<g id="Designed_by_Vecteezy">
</g>
</svg>
