<?xml version="1.0" encoding="utf-8"?>
<!-- Generator: Adobe Illustrator 18.1.1, SVG Export Plug-In . SVG Version: 6.00 Build 0)  -->
<svg version="1.1" xmlns="http://www.w3.org/2000/svg" xmlns:xlink="http://www.w3.org/1999/xlink" x="0px" y="0px"
	 viewBox="0 0 251.5 267.9" enable-background="new 0 0 251.5 267.9" xml:space="preserve">
<g id="_x31_">
	<g>
		<path fill="#E29244" d="M33.2,93.3C33.2,93.3,33.2,93.3,33.2,93.3c2.2,0,4.4-0.5,6.4-1.3c-3.2,19.2-2.7,54-1,80.8
			c1.2,19.1,3,36.4,5.3,50c3.8,22.7,7.9,29.2,11.4,32.5c11.1,10.5,43.1,12.7,68,12.7c7.2,0,43.8-0.3,55-6.3c1.7-0.9,3.3-2.1,4.9-4.5
			c2.4,1,5.2,1.6,8.6,1.6c6.6,0,17.2-2.3,30.7-13.5c13-10.7,21.9-37.5,25.9-58.9c2.6-13.9,7.3-48.6-5.2-70.1
			c-10.9-18.7-26.8-22.6-38.2-22.6c-1.1,0-2.2,0-3.3,0.1c3.4-4.7,6.5-10.8,8.1-18.5c3.6-16.5-2.4-23.7-9.4-29
			c-0.6-0.5-1.5-1.1-1.8-1.4c-4.7-10.2-25.8-27.9-40.4-29c-0.6,0-1.2-0.1-1.7-0.1c-9.4,0-13.8,6.1-15.9,9.3c-2.6-1-6.4-3.2-9.8-5.2
			c-8.1-4.7-17.3-10.1-27.6-11.2c-1.2-0.1-2.4-0.2-3.5-0.2C85.4,8.5,77,18.4,72,24.6c-3.6-2.2-8.9-4.5-16.8-4.5
			c-2.3,0-4.8,0.2-7.4,0.6c-14.6,2.3-27.5,10.4-34.5,21.4c-5.2,8.3-6.6,17.8-4,26.6C13.8,83.9,23,93.3,33.2,93.3z"/>
	</g>
	<g>
		<path fill="#FFFFFF" d="M25.2,84.8C25.2,84.8,25.2,84.8,25.2,84.8c2.2,0,4.4-0.5,6.4-1.3c-3.2,19.2-2.7,54-1,80.8
			c1.2,19.1,3,36.4,5.3,50c3.8,22.7,7.9,29.2,11.4,32.5c11.1,10.5,43.1,12.7,68,12.7c7.2,0,43.8-0.3,55-6.3c1.7-0.9,3.3-2.1,4.9-4.5
			c2.4,1,5.2,1.6,8.6,1.6c6.6,0,17.2-2.3,30.7-13.5c13-10.7,21.9-37.5,25.9-58.9c2.6-13.9,7.3-48.6-5.2-70.1
			C224.3,89,208.4,85.1,197,85.1c-1.1,0-2.2,0-3.3,0.1c3.4-4.7,6.5-10.8,8.1-18.5c3.6-16.5-2.4-23.7-9.4-29
			c-0.6-0.5-1.5-1.1-1.8-1.4c-4.7-10.2-25.8-27.9-40.4-29c-0.6,0-1.2-0.1-1.7-0.1c-9.4,0-13.8,6.1-15.9,9.3c-2.6-1-6.4-3.2-9.8-5.2
			c-8.1-4.7-17.3-10.1-27.6-11.2C94.2,0.1,93,0,91.8,0C77.4,0,69,9.9,64,16.1c-3.6-2.2-8.9-4.5-16.8-4.5c-2.3,0-4.8,0.2-7.4,0.6
			C25.1,14.6,12.2,22.6,5.3,33.7c-5.2,8.3-6.6,17.8-4,26.6C5.8,75.4,15,84.8,25.2,84.8z"/>
	</g>
	<g>
		<path fill="#3E1F00" d="M75.8,92.7C68.6,92.7,63,217.8,75,221c12,3.2,24.9-12,24.1-48.9c-0.8-36.9,1.6-67.3-3.2-68.1
			c-4.8-0.8,0,81.8-6.4,93.8c-6.4,12-12,30.5-13.6,8C74.2,183.3,79,92.7,75.8,92.7z"/>
		<path fill="#3E1F00" d="M127.1,92.7c-7.3,0-12.8,125.1-0.8,128.3c12,3.2,24.9-12,24.1-48.9c-0.8-36.9,1.6-67.3-3.2-68.1
			c-4.8-0.8,0,81.8-6.4,93.8c-6.4,12-12,30.5-13.6,8C125.5,183.3,130.3,92.7,127.1,92.7z"/>
		<path fill="#3E1F00" d="M178.5,113.6c7.2-7.2,37.7-4.8,43.3,18.4c5.6,23.3-4.8,69-16,87.4c-11.2,18.4-30.5,12-29.7,16.8
			c0.8,4.8,13.6,8,32.1-7.2s35.3-87.4,18.4-116.3c-16.8-28.9-48.1-13.6-48.1-13.6V113.6z"/>
		<path fill="#3E1F00" d="M31.7,70.3c4.9-8.5-20-8-10.4-25.7c9.6-17.6,36.1-20.8,40.9-8.8c4.8,12,7.2-8.8,24.1-16
			c16.8-7.2,25.7,11.2,43.3,12s11.2-11.2,31.3-2.4c20,8.8,4,16,16.8,20c12.5,3.9,13.5,17.8-2.1,27.4c-0.3-1.3-0.7-2.1-1.1-2.5
			c-7.2-7.2-113.8-8.8-116.3-0.8c-2.4,8,99.4,1.6,107.4,9.6c8,8,0,147.5-6.4,150.7c-6.4,3.2-81.8,7.2-94.6,0
			c-12.8-7.2-11.2-39.3-14.4-84.2c-3.2-44.9,4-76.2-4-75.4c-13,1.3-6.4,151.5,8,165.2c14.4,13.6,99.4,11.2,111.4,4.8
			c7.3-3.9,11.7-63.6,12.3-111.3c5.1-2.5,15-4.3,24.6,10.2c13.6,20.8-4.8,51.3-12,57.7c-7.2,6.4-16,12.8-9.6,13.6
			s27.3-12.8,31.3-37.7c4-24.9-1.6-46.5-13.6-52.9c-8.4-4.5-16.4-3.1-20.5-1.8c0-13.5-0.3-25.4-1-34c4.5-3.4,12.2-10.7,15-23.5
			c4-18.4-7.2-16.8-10.4-24.1c-3.2-7.2-21.6-22.4-32.1-23.3c-10.4-0.8-7.2,11.2-16.8,9.6c-9.6-1.6-24.1-15.2-38.5-16.8
			S73.4,21.4,67.8,27s-6.4-8-26.5-4.8c-20,3.2-35.3,19.2-30.5,35.3S26.1,79.9,31.7,70.3z"/>
	</g>
</g>
<g id="Designed_by_Vecteezy">
</g>
</svg>
